PathFileType	4	(X/Y/Z)	36_1_16_p1_0-149.trc
DataRate	CameraRate	NumFrames	NumMarkers	Units	OrigDataRate	OrigDataStartFrame	OrigNumFrames
40.0	40.0	5	27	m	40.0	0	150
Frame#	Time	RHip			RKnee			RAnkle			RBigToe			RSmallToe			RHeel			LHip			LKnee			LAnkle			LBigToe			LSmallToe			LHeel			Neck			Head			Nose			RShoulder			RElbow			RWrist			RThumb			RIndex			RPinky			LShoulder			LElbow			LWrist			LThumb			LIndex			LPinky			
		X1	Y1	Z1	X2	Y2	Z2	X3	Y3	Z3	X4	Y4	Z4	X5	Y5	Z5	X6	Y6	Z6	X7	Y7	Z7	X8	Y8	Z8	X9	Y9	Z9	X10	Y10	Z10	X11	Y11	Z11	X12	Y12	Z12	X13	Y13	Z13	X14	Y14	Z14	X15	Y15	Z15	X16	Y16	Z16	X17	Y17	Z17	X18	Y18	Z18	X19	Y19	Z19	X20	Y20	Z20	X21	Y21	Z21	X22	Y22	Z22	X23	Y23	Z23	X24	Y24	Z24	X25	Y25	Z25	X26	Y26	Z26	X27	Y27	Z27	
0	0.0	0.32478960590565	0.5747469985318197	-0.16354797902295468	0.3571524410349025	0.661132473594798	0.27826220236015337	0.37950918635143976	0.7397135166587491	0.7167624692492007	0.3236577711910819	0.5057858737900377	0.735547503754483	0.39557249222469193	0.568317747706493	0.7581123373329678	0.35399044851238304	0.8267871343838957	0.7748330200754828	0.11689151649810171	0.5793974708799613	-0.1218071359691282	0.14588929681404272	0.6707422348997126	0.307115371244984	0.19018442564194285	0.7283417935221769	0.7220647600143673	0.17871116236398718	0.533462120246317	0.7487331946748915	0.12973746528170665	0.5943264848906146	0.7690776829487334	0.2097819214474436	0.7973096791384031	0.797084078063109	0.17526827115086888	0.47816487562510546	-0.7663699182393835	0.15153767784762773	0.3913834014966381	-1.02974609777384	0.15613988138972776	0.33488756454268553	-0.8661221301717849	0.345716827165226	0.5431885402053074	-0.7001901291984299	0.4101754534221446	0.5089949626162236	-0.4197754025139163	0.2860470254195358	0.4051984881456657	-0.19279566525391795	0.1986397887291361	0.40854087901819175	-0.08702250079058438	0.2049486287980319	0.42673209557392916	-0.06012646905358931	0.21596768497907362	0.4429420126289643	-0.05706515988207078	0.011407442581381067	0.5162097637465544	-0.6753415278478251	0.029140727979395143	0.49337735226920165	-0.38612581027995685	0.17708504862268945	0.4143883673627843	-0.15988936466187875	0.2524793773901688	0.4405034599208076	-0.08420442733184116	0.25397548907505146	0.4697004892930516	-0.04868521948443523	0.21846467985724388	0.44233542549499966	-0.053650605971051514
1	0.025	0.32566894930204554	0.5758706281909176	-0.15119290234395547	0.35683473385961845	0.6618872240635907	0.28267796328176575	0.38018413818386676	0.7382287592353571	0.7205208037775185	0.32400241530239576	0.5059229381243683	0.7352249175589025	0.3959819500332204	0.5667929805278544	0.7533383010554936	0.3593007959652623	0.8265578679589488	0.778128387772211	0.11430908567754441	0.5659981468238833	-0.11623713676342085	0.14568431842616308	0.6711064662230773	0.30764602741047353	0.19037678301137273	0.7285099856315926	0.7223129993968691	0.17877800716091383	0.5332440290906568	0.7486823337621749	0.12996030488723598	0.5945092457258464	0.7691254445790267	0.2064245950601199	0.7825745447531474	0.7913197713688155	0.17526384033124737	0.478244706792225	-0.7662918812328801	0.1514545262649589	0.39134624649093874	-1.0303286465502604	0.15908137390455726	0.34651601472249627	-0.8635558275775228	0.3456993879895302	0.5431704851844483	-0.7002507080475733	0.41007918567430257	0.5086860419985835	-0.4165605806417525	0.28634330569088623	0.3941949506717429	-0.19454378799870686	0.20002142986910196	0.4095303897752437	-0.08215364699661135	0.20606604028591952	0.42764459990041337	-0.056261682863032944	0.21618640319865984	0.4431178190219539	-0.057324273848038676	0.01134438408898058	0.5158258766690678	-0.6753453034193203	0.026470138374384514	0.4812502766646233	-0.3902037330688391	0.17717044068578394	0.4138865190185504	-0.15988838420033138	0.25214919576592426	0.41297360643913145	-0.0933957374250808	0.2512545699353239	0.45716760049582206	-0.05122989910618733	0.219010963400796	0.417562669152511	-0.05936248161458241
2	0.05	0.3254369433018217	0.5764630771014654	-0.14746057753859543	0.3555859467119748	0.6602131508089322	0.27826909847417797	0.38416423242437664	0.7213506993193309	0.7124242121578387	0.31988374987527285	0.49376793069997643	0.7301863693990827	0.3993349894313032	0.5506660779115132	0.7450503146537834	0.3593107748265279	0.8263698256755455	0.7782771714951149	0.11694648817532144	0.5794649710647621	-0.11419155981022146	0.145768095594502	0.6708662955779008	0.30725504940742704	0.18885395121071663	0.7264070847845427	0.7170051084166852	0.1780006614100092	0.534182925804748	0.7444108871662373	0.1268525002639801	0.5809689604163089	0.7632418632328224	0.20874338615487792	0.7953169906224222	0.792738054452457	0.17521403406978334	0.47811553588974093	-0.7662070746158397	0.15563319894982233	0.3796373839842884	-1.0295486742003488	0.16276550913292628	0.3346607739541217	-0.8631192698824117	0.3456633885740548	0.5434211759269286	-0.7002070572113386	0.41003325445102157	0.5087432881022854	-0.41657809545251356	0.2862544236383951	0.39447199999182264	-0.19079363667757854	0.20484293104861484	0.3970525127482633	-0.08517625545971398	0.21431914225658427	0.4272104760433425	-0.04947593161881534	0.22522129299988342	0.443308149905114	-0.05449334299332145	0.011370771928530964	0.5160537789003223	-0.6753793231981832	0.026398053235570755	0.4805300179300005	-0.3904263764782162	0.1771019625496865	0.4136641339588542	-0.1599689843703679	0.24866467954636054	0.3865218903291486	-0.10598048481389744	0.2515720735142203	0.4153040708353686	-0.06372536404776626	0.22018875318412198	0.41812486315082337	-0.05566777775125116
3	0.075	0.32528756183067165	0.5768998612130575	-0.14385328669194597	0.3567091507528653	0.662042721493611	0.2830529702387851	0.3842175172565996	0.7214610857765928	0.7123838418683542	0.32343019511193644	0.5053367277445476	0.73534328468749	0.3990932100851093	0.550493619434175	0.7452088441529625	0.3593409555217192	0.8264430036269877	0.778314087162719	0.1141349965606334	0.566199521655726	-0.11610387654804538	0.14593007263812305	0.6709026331409678	0.3072667555226562	0.18998168432840382	0.7287508215651267	0.7221685026247269	0.17800941037427515	0.5344748576919056	0.7445460856992272	0.12977841282807426	0.5948411944209779	0.7692745543750521	0.20943326861292375	0.7939967345822094	0.787117217622437	0.17470126363574537	0.47701008671618855	-0.7695532034385145	0.15564906225706068	0.3797019021876236	-1.0296887168398627	0.1583908799538334	0.3455519368194991	-0.8663063977090625	0.34565792501921466	0.5433188409980435	-0.7002253730438253	0.4099762481864119	0.5088460714213122	-0.416579553879837	0.28624179723979887	0.3942986857680606	-0.19087918049885785	0.20865290384236243	0.3969381667029952	-0.08533207051345332	0.21473342841691256	0.4161717157949346	-0.05180200515689826	0.2212798881300907	0.4405494643833128	-0.05481356734962526	0.01138800677221068	0.5159983400155752	-0.6753523560760135	0.025866016844383197	0.48067589628958907	-0.3943198204619317	0.17730653091933252	0.4133423639742674	-0.1633808524258272	0.2487140169219432	0.3858925440295037	-0.10618988128905191	0.25166701940277536	0.4146981592765078	-0.06392460870809112	0.22035699017094823	0.4177250313513556	-0.059877890549938945
4	0.1	0.32530862218841006	0.5768584255855765	-0.1438348011862566	0.3555630170156076	0.6602440575482673	0.27834161689419107	0.38425010310168367	0.7215168713624622	0.7123463509497706	0.3233764490739066	0.5053368774630267	0.7354275260456962	0.39914342860921054	0.5504593148335055	0.7451766187106599	0.35933778508810504	0.8263701134468618	0.7783738350994815	0.11414216633199822	0.5661149971622562	-0.11613112713110568	0.14580788481199158	0.6706114280373656	0.3072912941299016	0.18996413623091976	0.7284764914804797	0.7219770419367773	0.17883360253784644	0.53314022635788	0.7486146036866709	0.12984657784481005	0.5946315607186138	0.7691557934206892	0.20946696692665054	0.794028316698507	0.7871031583806811	0.17509695148077667	0.477117936613418	-0.7662482256489626	0.15562999999151747	0.37966300030255745	-1.0296390246294636	0.162230327647917	0.33386945028262016	-0.8657172377442326	0.3456491713402873	0.5434104508582168	-0.700191153249192	0.4099807862819156	0.5089292029715217	-0.41660942778599397	0.28624802299761676	0.39433045550433554	-0.19095420963202087	0.20870501310928655	0.39716904949064097	-0.08522841341721929	0.21478049257553697	0.41654290698553736	-0.05176328231652339	0.21682391858939165	0.4276633766447826	-0.06076970792889876	0.011358657015658772	0.5159345201830808	-0.6753137434237168	0.02590445344342469	0.48087151135152334	-0.39427977778657414	0.177319597812911	0.4133749690687337	-0.16337694201131092	0.24877432135326127	0.386172724492957	-0.10602259050227184	0.25169668209275453	0.41508400495794945	-0.06384326480687563	0.22026709418987464	0.41832374404528416	-0.055585336158823336
